<?xml version="1.0" encoding="UTF-8"?>
<svg id="_Слой_1" data-name="Слой 1" xmlns="http://www.w3.org/2000/svg" viewBox="0 0 595.28 595.28">
  <defs>
    <style>
      .cls-1 {
        fill: #fff;
      }

      .cls-1, .cls-2, .cls-3 {
        stroke-width: 0px;
      }

      .cls-2 {
        fill-rule: evenodd;
      }

      .cls-2, .cls-3 {
        fill: #916355;
      }
    </style>
  </defs>
  <rect class="cls-1" x="24.57" y="40.48" width="551.58" height="541.97"/>
  <path class="cls-3" d="M33.01,574h534.69V48.92h-238.91c.18-2.81.14-5.63-.17-8.44h247.52v541.97H24.57V40.48h274c-.24,2.79-.72,5.61-1.4,8.44H33.01v525.08Z"/>
  <path class="cls-2" d="M523.05,530.03c-1.84,5.16-6.56,8.1-12.89,8.1-8.25,0-13.7-5.01-13.7-13.48s5.45-13.41,13.7-13.41c6.34,0,10.98,2.95,12.82,8.1h12.96v-3.09c-3.31-10.46-13.55-16.65-25.78-16.65-15.25,0-26.44,9.72-26.44,25.05s11.2,25.12,26.44,25.12c12.89,0,22.98-7.37,25.78-16.65v-3.09h-12.89ZM476.86,503.73v-2.73h-12.96l-15.4,17.68h-4.71v-17.68h-12.52v47.88h12.52v-19.89h4.79l16.8,19.89h13.92v-2.73l-19.23-22.03v-1.4l16.8-19ZM396.64,515.44h1.11l5.97,14.73h-12.97l5.89-14.73ZM370.56,546.16v2.73h12.6l3.17-7.81h21.8l3.17,7.81h12.96v-2.73l-19.59-45.16h-14.88l-19.23,45.16ZM351.04,548.88h12.52v-47.88h-17.24l-13.48,30.2h-1.25l-13.41-30.2h-17.46v47.88h12.52v-28.88h1.03l12.89,28.88h10.17l12.67-28.88h1.03v28.88ZM249.39,548.88h39.56v-10.9h-27.03v-8.55h25.56v-10.9h-25.56v-6.63h26.89v-10.9h-39.41v47.88ZM219.48,517.36c5.08,0,8.4,2.43,8.4,6.56s-3.31,6.63-8.4,6.63h-2.21v-13.19h2.21ZM202.54,517.36h2.21v13.19h-2.21c-5.08,0-8.4-2.43-8.4-6.63s3.31-6.56,8.4-6.56ZM202.54,541.52h2.21v7.37h12.52v-7.37h2.21c12.15,0,21.14-6.85,21.14-17.61s-8.99-17.53-21.14-17.53h-2.21v-5.38h-12.52v5.38h-2.21c-12.23,0-21.14,6.85-21.14,17.53s8.91,17.61,21.14,17.61ZM149.13,549.77c15.17,0,26.45-9.8,26.45-25.12h-12.74c0,8.47-5.45,13.48-13.7,13.48s-13.7-5.01-13.7-13.48,5.45-13.41,13.7-13.41,13.7,5.01,13.7,13.41h12.74c0-15.32-11.27-25.05-26.45-25.05s-26.44,9.72-26.44,25.05,11.2,25.12,26.44,25.12ZM115.84,503.73v-2.73h-12.96l-15.4,17.68h-4.71v-17.68h-12.52v47.88h12.52v-19.89h4.79l16.8,19.89h13.92v-2.73l-19.23-22.03v-1.4l16.8-19ZM39.5,567.01h522.03v-89.98H39.5v89.98Z"/>
  <path class="cls-2" d="M324.27,70.82c1.7,6.6,1.47,13.07,0,19.42v-19.42ZM314.16,91.77c2.79-5.5,5.46-11.05,7.8-16.72l.2-.49v22.69c-2.05,5.6-4.89,11.09-8,16.44v-21.92ZM304.04,111.24c2.62-5.12,5.34-10.22,8-15.35v21.36c-1.25,2.06-2.52,4.1-3.79,6.12-1.35,2.16-2.77,4.37-4.21,6.63v-18.76ZM343.27,56.43h-5.67c2.04,2.01,3.94,4.11,5.67,6.32v-6.32ZM353.39,56.43h-8v9.2c4.48,6.53,7.43,13.93,8,22.35v-31.54ZM552.08,469.06h8.15V56.43h-8.15v412.63ZM541.53,469.06h8.44V56.43h-8.44v412.63ZM186.14,285.03c-8.28,2.21-15.52,4.67-21.52,7.32-3.96-1.61-7.45-3.3-10.43-5.05-6.77-3.98-10.66-8.05-10.94-12.02-.09-1.27.2-2.55.86-3.84,8.74,4.66,20.69,8.74,35.15,12.09,2.23.52,4.53,1.02,6.88,1.51ZM451.99,269.87c1.39,1.9,2.02,3.78,1.83,5.62-.42,3.98-4.46,8.06-11.37,12.05-3.18,1.83-6.91,3.59-11.15,5.27-6.36-2.91-14.16-5.58-23.16-7.97,2.02-.42,3.99-.86,5.92-1.31,16.06-3.72,29.02-8.35,37.93-13.66ZM288.45,152.47h0c2.05-12.92,7.85-25.81,13.48-37.06v17.9c-3.85,6.09-7.72,12.51-10.88,19.13l-.04.08-.02.04-.06.12-.06.12-.04.09-.02.03-.06.12-.1.22v.02s-.12.24-.12.24l-.05.11h0s-.11.25-.11.25l-.06.12h0s-.05.12-.05.12l-.29.64-.04.09-.11.24-.02.04-.04.08-.05.12-.05.12-.02.05-.14.31-.03.07-.16.38-.02.04-.14.34h0c-.51,1.2-.98,2.4-1.43,3.61.07-2.6.33-5.21.75-7.83ZM200.89,363.4c-6.63,1.94-12.45,4.1-17.32,6.42-3.31-1.39-6.27-2.84-8.84-4.34-6.13-3.6-9.84-7.32-10.47-10.98l-.03-.19v-.03s-.01-.07-.01-.07v-.13c-.07-.54-.05-1.08.04-1.62,7.38,3.29,16.56,6.27,27.17,8.83,3.03.73,6.19,1.44,9.46,2.1ZM432.96,351.11c.3.99.38,1.97.22,2.94-.62,3.69-4.35,7.45-10.54,11.08-2.71,1.59-5.86,3.13-9.4,4.59-5.07-2.42-11.22-4.66-18.28-6.68,2.61-.55,5.15-1.12,7.61-1.71,12.17-2.92,22.49-6.38,30.4-10.22ZM452.27,331.16c-.26.66-.52,1.3-.79,1.93l-.16.37c-.69,2.97-2.35,5.8-4.89,8.47-.17.2-.34.38-.51.56l-.02-.02c-1.54,1.53-3.38,3.01-5.5,4.42.74,1.69,1.18,3.43,1.28,5.21.25,2.03.22,4.14-.03,6.29l6.84-.8c3.48-.41,6.96-.82,10.44-1.23,1.45-.17,3.02-.3,4.45-.54,17.77-2.99,34.73-11.5,46.7-25.13,10.68-12.16,16.52-27.67,14.63-43.9-1.69-14.6-9.37-27.29-20.64-36.56-9.85-8.1-21.91-13.25-34.42-15.47-.16,1.12-.32,2.24-.49,3.33-1.01,6.48-2.3,12.49-3.9,17.13-.19.81-.45,1.62-.8,2.41l-.04,2.07,3.22.3c8.32.77,16.48,3.92,22.83,9.4,6.12,5.28,10.18,12.34,11.12,20.42,1.08,9.27-2.17,18.1-8.27,25.05-6.34,7.22-15.27,11.84-24.69,13.45l-3.57.61v.05c-4.25.78-8.53,1.52-12.81,2.18ZM458.85,319.22c-.92.16-1.83.33-2.75.49.15-.53.3-1.06.45-1.59.66-2.38,1.48-5.71,2.3-9.49v10.6ZM487.52,282.01c.84,1.24,1.55,2.56,2.11,3.95v14.83c-.56,1.43-1.27,2.81-2.11,4.11v-22.9ZM477.41,273.57c.72.34,1.42.71,2.11,1.12v38.17c-.69.45-1.39.88-2.11,1.27v-40.55ZM467.29,270.72c.71.08,1.41.18,2.11.3v46.2c-.7.17-1.4.32-2.11.45v-46.96ZM326.94,57.19c31.24,55.27-66.65,100.32-24.67,148.17-6.22-56.84,80.61-102.54,24.67-148.17ZM297.66,10.37c38.8,53.09-66.97,118.2-16.74,161.51-11.04-59.18,82.35-123.02,16.74-161.51ZM134.53,247.95c31.46,17.16,68.98,23.39,107.82,27.24-34.85-2.2-69.77-5.41-105.51-20.39.35.73.72,1.38,1.11,1.95l-.17.12c4.87,6.73,20.53,13.15,43.35,18.44,29.5,6.83,70.33,11.06,115.52,11.06s86.03-4.23,115.52-11.06c21.27-4.92,36.32-10.84,42.21-17.07.23-.39.43-.81.58-1.26,1.07-1.16,3.3-9.01,4.91-14.52.35-1.81.67-3.7.98-5.66,1.33-8.53,2.22-18.07,2.71-26.06-8.99,6.96-24.4,12.97-44.47,17.62-31.25,7.24-74.34,11.71-121.86,11.71s-90.6-4.48-121.86-11.71c-20.16-4.67-35.61-10.71-44.58-17.71.09,2.67.2,5.35.34,8.01,32.14,18.61,70.98,25.16,111.22,29.15-36.58-2.31-73.24-5.73-110.84-22.71.06.87.12,1.74.19,2.59,32.03,18.36,70.64,24.85,110.65,28.82-36.32-2.3-72.72-5.68-110.05-22.36.13,1.18.26,2.34.41,3.47,31.83,17.92,70.05,24.32,109.64,28.25-35.86-2.27-71.8-5.59-108.63-21.73.25,1.33.52,2.6.81,3.8ZM226.12,428.8c15.12,2.96,30.79,4.93,46.68,6.51-14-.89-28.02-1.93-42.09-3.84,4.4,2.45,8.86,4.64,13.37,6.56,12.33,2.09,24.97,3.62,37.76,4.88-10.68-.68-21.37-1.44-32.09-2.62,15.65,5.86,31.9,8.69,48.39,8.69,22.94,0,46.43-5.68,69-18.44,20.04-11.33,39.4-28.25,57.09-51.74,1.51-2.25,3.04-4.8,4.41-7.49-.56.36-1.14.71-1.74,1.06-7.99,4.7-19.09,8.84-32.4,12.22-6.34,1.61-13.27,3.07-20.69,4.36-7.26,1.26-15.02,2.34-23.16,3.23-8.19.89-16.79,1.59-25.7,2.06-8.55.45-17.44.69-26.59.7-9.15.01-18.04-.21-26.57-.65-8.89-.45-17.46-1.14-25.61-2.01-8.11-.87-15.82-1.94-23.05-3.18-7.34-1.26-14.22-2.7-20.54-4.3-13.19-3.34-24.19-7.43-32.1-12.07-.3-.18-.59-.35-.89-.53.44.86.91,1.71,1.4,2.54,1.08,1.58,2.17,3.14,3.27,4.67,29.35,13.53,63.21,18.91,98.13,22.38-30.8-1.95-61.65-4.67-93.07-15.62,1.93,2.48,3.88,4.88,5.86,7.2,26.69,10.22,56.54,14.75,87.21,17.79-27.24-1.72-54.53-4.05-82.22-12.15,2.31,2.51,4.66,4.92,7.03,7.24,23.5,7.36,49.05,11.03,75.19,13.62-23.31-1.47-46.65-3.39-70.24-8.99,2.96,2.67,5.97,5.2,9.01,7.58,19.52,4.85,40.18,7.63,61.23,9.72-18.74-1.18-37.51-2.66-56.41-6.1,3.33,2.41,6.71,4.64,10.12,6.71ZM147.63,318.74c-.05-.16-.09-.3-.14-.4l-.24-.55c-.17-.81-.35-1.74-.53-2.77,37.35,15.58,73.78,17.87,110.12,19.07-40.23-2.78-79.06-8.16-111.19-25.79-.12-.84-.24-1.71-.36-2.59,37.85,16.13,74.74,18.46,111.56,19.68-40.74-2.82-80.03-8.29-112.4-26.46-.18-1.64-.36-3.29-.52-4.92-.12-1.29-.24-2.57-.34-3.82,1.85,1.51,3.96,2.96,6.34,4.36,8.7,5.11,21.11,9.66,36.25,13.4,14.77,3.65,32.3,6.6,51.69,8.61,18.59,1.93,38.96,2.99,60.29,3,21.3,0,41.66-1.04,60.28-2.94,19.36-1.98,36.91-4.89,51.74-8.51,15.15-3.7,27.63-8.21,36.44-13.29,2.66-1.53,5.01-3.13,7.03-4.8-1.27,9.37-3.67,20.28-5.22,25.85-1.41,5.07-3.02,9.96-4.71,13.92-.16.38-.33.76-.49,1.12h0s0,.02,0,.02c-1.17,2.6-2.32,4.62-3.37,5.71h.01c-1.75,1.7-4.15,3.39-7.13,5.08-7.61,4.3-18.61,8.18-32.12,11.42-13.59,3.27-29.73,5.89-47.63,7.69-17.21,1.73-36.1,2.68-55.97,2.68s-38.83-.95-56.07-2.69c-17.88-1.8-34.01-4.43-47.54-7.71-13.52-3.27-24.46-7.16-31.94-11.47-3.13-1.8-5.6-3.62-7.31-5.42h0c-.22-.26-.44-.54-.66-.84,34.98,13.16,69.19,15.25,103.33,16.38-38.39-2.65-75.48-7.67-106.72-23.44-.33-.93-.65-1.92-.95-2.94,36.5,14.68,72.12,16.89,107.67,18.07-39.41-2.73-77.46-7.94-109.21-24.72ZM40.48,469.06h261.45v-11.68c.7-.02,1.41-.04,2.11-.07v11.75h8v-12.29c.7-.07,1.41-.14,2.11-.22v12.51h8v-13.62c.7-.12,1.41-.24,2.11-.37v13.99h8.44v-15.8c.7-.17,1.41-.35,2.11-.53v16.33h8.44v-18.81c.7-.23,1.41-.47,2.11-.71v19.52h8v-22.52c.7-.29,1.41-.58,2.11-.88v23.4h8v-27.08c.7-.35,1.41-.7,2.11-1.06v28.14h8.44v-32.81c.7-.42,1.41-.84,2.11-1.27v34.08h8.44v-39.6c.71-.49,1.41-.99,2.11-1.5v41.1h8v-47.2c.71-.57,1.41-1.15,2.11-1.73v48.94h8v-55.99c.71-.66,1.41-1.32,2.11-1.99v57.98h8.44v-66.56c.71-.76,1.41-1.53,2.11-2.3v68.86h8.44v-78.67c.67-.75,1.38-1.61,2.11-2.54v81.22h8v-93.78c.74-1.45,1.44-2.93,2.08-4.43l.03-.07v98.29h8v-100.47l2.11-.23v100.7h8.44v-101.64l2.11-.24v101.88h8.44v-103.06c.71-.14,1.41-.28,2.11-.43v103.49h8v-105.57c.71-.22,1.41-.44,2.11-.67v106.24h8v-109.3c.71-.31,1.41-.62,2.11-.95v110.25h8.44v-114.72c.71-.43,1.41-.86,2.11-1.31v116.03h8.44v-122.16c.71-.59,1.42-1.19,2.11-1.8v123.96h8v-132.07c.72-.85,1.43-1.7,2.11-2.58v134.64h8v-147.25c.76-1.53,1.47-3.08,2.11-4.66v151.91h8.44V56.43h-8.44v212.14c-.64-1.55-1.35-3.07-2.11-4.56V56.43h-8v195.45c-.68-.83-1.39-1.64-2.11-2.44V56.43h-8v185.41c-.71-.58-1.41-1.14-2.11-1.69V56.43h-8.44v177.82c-.7-.43-1.41-.85-2.11-1.25V56.43h-8.44v172.44c-.7-.29-1.4-.56-2.11-.82V56.43h-8v169.19c-.7-.17-1.4-.32-2.11-.47V56.43h-8v131.17c-.62-.85-1.32-1.69-2.11-2.52V56.43h-8.44v122.11c-.68-.41-1.38-.82-2.11-1.22V56.43h-8.44v116.79c-.69-.29-1.39-.58-2.11-.87V56.43h-8v113c-.7-.23-1.4-.46-2.11-.69V56.43h-8v109.95c-.7-.19-1.4-.38-2.11-.56V56.43h-8.44v107.34c-.7-.16-1.4-.31-2.11-.47V56.43h-8.44v105.14c-.7-.13-1.4-.27-2.11-.4V56.43h-8v103.35c-.7-.12-1.4-.23-2.11-.34V56.43h-8v101.8c-.7-.1-1.4-.2-2.11-.29V56.43h-8.44v100.43c-.7-.08-1.4-.17-2.11-.25V56.43h-8.44v99.27c-.7-.07-1.41-.14-2.11-.21V56.43h-8v98.34c-.7-.06-1.41-.12-2.11-.17v-60.62c-.6,8.95-3.76,17.98-8,26.73v33.29l-2.11-.14v-28.97c-2.63,5.02-5.54,9.92-8.44,14.66v13.82l-2.11-.11v-10.29c-2.13,3.45-4.23,6.79-6.15,10.01v.02s-.03.02-.03.02v.02s-.02,0-.02,0v.02s-.04.05-.04.05v.02s-.03.02-.03.02v.02s-.03.02-.03.02l-.03.05v.02s-.03.02-.03.02v.02s-.03.02-.03.02v.02s-.03.02-.03.02h0s0,.02,0,.02v.02s-.03.02-.03.02v.02s-.03.02-.03.02v.02s-.03.02-.03.02v.02s-.01,0-.01,0v.02s-.03.02-.03.02v.02s-.03.02-.03.02v.02s-.03.02-.03.02v.02s-.02.01-.02.01h0s-.01.03-.01.03v.02s-.03.02-.03.02v.02s-.03.02-.03.02v.02s-.03.02-.03.02h0s-.01.02-.01.02v.02s-.03.02-.03.02v.02s-.03.02-.03.02v.02s-.03.02-.03.02v.02s-.01,0-.01,0v.02s-.03.02-.03.02v.02s-.04.05-.04.05v.02s-.03.02-.03.02h0s0,.02,0,.02v.02s-.03.02-.03.02v.02s-.03.02-.03.02v.02s-.03.02-.03.02v.02s-.04.04-.04.04l-.02.04-.02.03h0s-.02.05-.02.05l-.02.04v.02s-.02.02-.02.02l-.02.04-.02.04h0s-.02.04-.02.04l-.02.04-.02.04h0s-.02.04-.02.04l-.02.04-.02.03h0s-.02.04-.02.04l-.02.04v.02s-.02.02-.02.02l-.02.04-.02.04h0s-.01.04-.01.04l-.02.04-.02.04h0s-.02.04-.02.04l-.02.04-.02.03h0s-.02.04-.02.04l-.02.04v.02s-.02.01-.02.01l-.02.04-.02.04v.02s-.02.02-.02.02l-.02.04-.02.04h0s-.02.04-.02.04l-.02.04-.02.04h0s-.02.04-.02.04l-.02.04-.02.03h0s-.02.05-.02.05l-.02.04v.02s-.02.02-.02.02l-.02.04-.02.04h0s-.02.04-.02.04l-.02.04-.02.04h0s-.02.04-.02.04l-.02.04-.02.03h0s-.02.05-.02.05l-.02.04v.02s-.13.21-.13.21h0s-.13.23-.13.23h0c-.84,1.44-1.67,2.9-2.48,4.39,37.08,1.24,70.23,5.24,95.42,11.08,25.1,5.81,41.89,12.98,45.88,20.47-34.36-17.01-68.24-21.25-102.08-24.47,37.31,4.9,73.21,12.15,102.42,30.61-.19.46-.44.92-.73,1.38-34.33-16.96-68.17-21.2-101.97-24.41,35.63,4.68,69.99,11.5,98.46,28.2-.7.57-1.47,1.14-2.32,1.71-32.43-14.78-64.44-18.74-96.42-21.77,32.88,4.32,64.67,10.46,91.75,24.5-.82.43-1.69.85-2.59,1.27-30.04-12.32-59.74-15.93-89.42-18.75,29.94,3.93,58.97,9.38,84.36,20.91-.93.37-1.88.73-2.87,1.09-14.69-6.01-35.95-11.02-61.46-14.48-20.98-2.84-44.84-4.65-70.26-5.12-.11.95-.2,1.91-.26,2.87h0l-.02.25v.13s-.01.13-.01.13v.04s-.02.4-.02.4v.07s0,.06,0,.06v.07s0,.13,0,.13v.13s-.01.25-.01.25v.02s0,.02,0,.02v.02s0,.02,0,.02v.02s0,.02,0,.02v.02s0,.02,0,.02h0v.03s0,.02,0,.02v.02s0,.05,0,.05v.02s0,.11,0,.11v.02c0,.2,0,.41-.01.61v.03s0,.13,0,.13v.13s0,.13,0,.13v.38s0,.13,0,.13v.13s0,.13,0,.13v.13s0,.26,0,.26v.13s0,.26,0,.26v.26s.01.13.01.13v.07s0,.05,0,.05v.05s0,.05,0,.05v.1s0,.05,0,.05v.02s0,.03,0,.03v.15s0,.05,0,.05v.15s0,.02,0,.02v.08s0,.05,0,.05h0s0,.05,0,.05v.05s0,.03,0,.03v.02s0,.05,0,.05v.05s0,0,0,0v.04s0,.05,0,.05v.1s0,.05,0,.05v.02s0,.03,0,.03v.05s0,.05,0,.05h0s0,.05,0,.05v.05s0,.03,0,.03v.02s0,.05,0,.05v.05s0,.01,0,.01v.04s0,.05,0,.05v.04s0,0,0,0v.05s0,.05,0,.05v.02s0,.03,0,.03v.05s0,.05,0,.05h0s0,.05,0,.05v.05s0,.03,0,.03h0s0,.06,0,.06v.05s0,.02,0,.02v.03s0,.05,0,.05v.05s0,0,0,0v.05s0,.05,0,.05v.03s0,.02,0,.02v.05s0,.05,0,.05h0s0,.05,0,.05v.05s0,.04,0,.04h0s0,.06,0,.06v.05s0,.02,0,.02v.03s0,.05,0,.05v.05c.38,3.39-1.42,6.49-4.54,7.86l-.1.04h-.02s-.02.02-.02.02h0s-.02,0-.02,0h-.02s-.02.02-.02.02l-.04.02h-.02s-.02.02-.02.02h0s-.01,0-.01,0h-.02s-.02.02-.02.02h-.02s-.04.02-.04.02h-.02s-.01.01-.01.01h0s-.02.01-.02.01h-.02s-.02.01-.02.01h-.02s-.02.01-.02.01h-.02s-.02.01-.02.01h0s-.02,0-.02,0h-.02s-.02.01-.02.01h-.04s-.02.02-.02.02h-.02s-.02.01-.02.01l-.08.03h-.02s-.02.01-.02.01h0s-.14.04-.14.04h0s-.1.03-.1.03h-.02s-.02.01-.02.01h-.01s0,0,0,0h-.02s-.02.01-.02.01h-.02s-.02.01-.02.01h-.02s-.02.01-.02.01c-.7.17-1.41.24-2.11.22h-.1s-.06,0-.06,0h-.04s-.1,0-.1,0h-.02s-.08,0-.08,0h-.07s-.02,0-.02,0h-.09s-.03-.01-.03-.01h-.07s-.08-.02-.08-.02h-.01s-.09-.02-.09-.02h-.04s-.05-.02-.05-.02l-.09-.02h0s-.09-.02-.09-.02h-.05s-.04-.02-.04-.02l-.09-.02h0s-.08-.02-.08-.02h0s-.09-.02-.09-.02l-.09-.02-.08-.02h-.02s-.08-.03-.08-.03l-.09-.03h-.03s-.06-.03-.06-.03l-.08-.03h0s-.09-.03-.09-.03h-.04s-.05-.03-.05-.03l-.09-.03h0l-.09-.03-.05-.02-.11-.04h-.02s-.01-.01-.01-.01l-.08-.03-.06-.03h-.03s-.09-.05-.09-.05h-.02s-.07-.04-.07-.04l-.07-.03h-.02s-.09-.05-.09-.05l-.03-.02h-.01s-.21-.12-.21-.12l-.04-.02-.04-.02-.08-.05h0s-.08-.05-.08-.05l-.05-.03-.03-.02-.08-.05h-.01s-.07-.05-.07-.05l-.06-.04h-.02s-.08-.07-.08-.07l-.02-.02-.06-.04-.07-.05h-.01s-.08-.07-.08-.07l-.03-.02-.05-.04-.07-.06h0s-.08-.06-.08-.06l-.04-.03-.04-.03-.08-.06h0s-.07-.07-.07-.07l-.05-.04-.03-.02-.07-.07h-.01s-.06-.07-.06-.07l-.05-.05-.02-.02-.07-.07-.02-.02-.05-.05-.06-.06h0s-.07-.08-.07-.08l-.03-.03-.04-.04-.07-.08-.11-.13-.07-.08-.05-.05-.11-.13-.02-.02-.09-.1-.09-.1-.02-.03-.11-.13-.04-.05-.07-.08-.11-.13h0s-.11-.13-.11-.13l-.06-.08-.05-.05-.11-.13-.02-.02-.09-.11-.08-.1-.02-.03-.11-.13-.04-.05-.07-.08-.1-.13h0s-.11-.14-.11-.14l-.06-.07-.05-.06-.1-.13-.02-.02-.09-.11-.08-.1-.02-.03-.1-.13-.04-.05-.07-.09-.1-.13h0s-.1-.14-.1-.14l-.06-.07-.05-.06-.1-.13v-.02s-.1-.11-.1-.11l-.07-.1-.03-.03-.1-.13-.03-.05-.07-.09-.09-.13h0s-.1-.14-.1-.14l-.05-.07-.05-.06-.1-.13v-.02s-.1-.12-.1-.12l-.07-.1-.03-.04-.1-.14-.03-.04-.06-.09-.09-.12h0s-.09-.15-.09-.15l-.05-.07-.05-.07-.09-.14h-.01s-.08-.14-.08-.14l-.07-.1-.03-.04-.18-.27-.08-.12h0s-.09-.15-.09-.15l-.18-.28h0s-.08-.14-.08-.14l-.06-.1-.03-.04-.09-.14-.09-.14-.08-.12v-.02s-.1-.14-.1-.14l-.09-.14-.09-.14-.09-.14-.06-.09-.03-.05-.08-.14-.24-.41-.05-.08h0s-.03-.05-.03-.05l-.07-.13-.03-.05h0s-.04-.07-.04-.07l-.07-.13v-.03s-.02,0-.02,0l-.06-.1-.13-.24h0s-.03-.07-.03-.07h0s0-.02,0-.02l-.03-.06h0s0-.02,0-.02h0s-.05-.1-.05-.1h0s0-.02,0-.02h0s0-.02,0-.02h0s0-.02,0-.02h0s0-.02,0-.02h0s0-.02,0-.02h0s0-.02,0-.02h0s-.07-.14-.07-.14l-.02-.04h0s-.04-.08-.04-.08l-.07-.13v-.02s0,0,0,0l-.06-.11-.06-.12h0s0-.01,0-.01l-.07-.13-.05-.09h0s-.02-.04-.02-.04l-.07-.13-.03-.06h0s-.03-.07-.03-.07l-.07-.13-.02-.03h0s-.05-.1-.05-.1l-.07-.13h0s0,0,0,0l-.06-.12-.13-.26-.04-.08h0s-.02-.05-.02-.05l-.06-.13-.02-.05h0s-.04-.08-.04-.08l-.06-.13v-.02s-.01,0-.01,0l-.05-.11-.06-.13h0s0,0,0,0l-.06-.13-.05-.1h0s-.11-.23-.11-.23h0s-.03-.06-.03-.06l-.06-.13-.02-.04h0s-.04-.09-.04-.09l-.06-.13h0s0-.01,0-.01h0s-.1-.24-.1-.24h0s0-.01,0-.01l-.06-.13-.04-.09h0c-.4-.95-.77-1.9-1.11-2.88-26.53.38-51.43,2.22-73.22,5.17-25.19,3.41-46.25,8.34-60.92,14.25-13.79-5.13-21.7-10.83-21.7-16.61,0-8.7,17.89-17.2,46.8-23.9,23.05-5.34,52.78-9.14,86.07-10.7-.63-1.34-1.19-2.72-1.68-4.14v-.03s-.04-.08-.04-.08l-.02-.05-.02-.05-.02-.08v-.03s-.04-.1-.04-.1h0s-.04-.11-.04-.11v-.02s-.04-.09-.04-.09v-.04s-.03-.07-.03-.07l-.02-.06v-.04s-.04-.09-.04-.09v-.02s-.07-.22-.07-.22v-.03s-.03-.08-.03-.08l-.02-.05-.02-.06-.02-.08v-.03s-.04-.1-.04-.1h0s0-.01,0-.01l-.06-.21v-.04s-.03-.07-.03-.07l-.02-.07v-.04s-.04-.09-.04-.09v-.02s-.04-.11-.04-.11h0s-.03-.11-.03-.11v-.03s-.03-.08-.03-.08v-.05s-.03-.06-.03-.06l-.02-.08v-.03s-.04-.1-.04-.1h0s-.03-.12-.03-.12v-.02s-.03-.09-.03-.09v-.04s-.03-.07-.03-.07l-.02-.07v-.04s-.03-.09-.03-.09v-.02s-.03-.11-.03-.11h0s-.03-.11-.03-.11v-.03s-.03-.08-.03-.08v-.06s-.03-.06-.03-.06l-.05-.22h0s-.03-.12-.03-.12v-.02c-.22-.97-.41-1.95-.56-2.95-3.39-22.31,11.89-47.2,22.08-66.18,4.38-8.16,9.54-17.85,12.96-27.78H40.48v412.63Z"/>
</svg>